<svg xmlns="http://www.w3.org/2000/svg" width="25" height="30" fill="currentColor" viewBox="0 0 25 30">
  <path d="M25 10.85c0-.2-.078-.393-.215-.535a.725.725 0 0 0-.52-.221c-6.55 0-10.89 2.337-12.99 6.96V7.52c3.837-.267 5.882-2.572 5.882-6.761a.778.778 0 0 0-.215-.537.735.735 0 0 0-.52-.222c-4.33 0-6.618 2.356-6.618 6.813v5.66C8.144 9.582 5.092 8.075.735 8.075a.725.725 0 0 0-.52.221.768.768 0 0 0-.215.536c0 6.831 3.406 10.525 9.804 10.798v9.613c0 .2.077.393.215.535a.725.725 0 0 0 .52.222c.195 0 .382-.08.52-.222a.769.769 0 0 0 .216-.535v-3.529C20.371 25.456 25 20.47 25 10.851Zm-9.341-9.306c-.212 2.822-1.614 4.266-4.357 4.482.212-2.822 1.614-4.266 4.357-4.482ZM1.486 9.603c4.936.216 7.608 2.65 8.177 7.348l-4.487-4.617a.736.736 0 0 0-.525-.24.716.716 0 0 0-.532.221.759.759 0 0 0-.216.549.776.776 0 0 0 .234.54l4.487 4.619c-4.563-.585-6.928-3.339-7.138-8.42ZM12.433 24.1l6.47-6.662a.757.757 0 0 0 .216-.535.776.776 0 0 0-.216-.535.734.734 0 0 0-.52-.222.717.717 0 0 0-.52.223l-6.47 6.661c.587-7.412 4.542-11.19 12.127-11.415-.22 7.808-3.889 11.882-11.087 12.485Z"/>
</svg>
