<svg xmlns="http://www.w3.org/2000/svg" width="12" height="12" fill="currentColor" viewBox="0 0 12 12">
  <path d="M10.543 3.143A.544.544 0 0 0 10 2.6H2a.544.544 0 0 0-.543.543v5.714A.544.544 0 0 0 2 9.4h8a.544.544 0 0 0 .543-.543V3.143Zm1.2 5.714A1.744 1.744 0 0 1 10 10.6H2A1.743 1.743 0 0 1 .258 8.857V3.143A1.743 1.743 0 0 1 2 1.4h8a1.743 1.743 0 0 1 1.743 1.743v5.714Z"/>
  <path d="M10.81 2.644a.6.6 0 1 1 .665.998L6.333 7.07a.6.6 0 0 1-.666 0L.524 3.64a.6.6 0 0 1 .666-.997L6 5.85l4.81-3.206Z"/>
</svg>
