<svg xmlns="http://www.w3.org/2000/svg" width="13" height="13" fill="currentColor" viewBox="0 0 13 13">
  <path d="M6.5 8C7.879 8 9 6.879 9 5.5S7.879 3 6.5 3A2.503 2.503 0 0 0 4 5.5C4 6.879 5.121 8 6.5 8Zm0-3.75a1.25 1.25 0 1 1 0 2.5 1.25 1.25 0 0 1 0-2.5Z"/>
  <path d="M6.101 12.88a.715.715 0 0 0 .798 0c.209-.14 5.12-3.494 5.1-7.68C12 2.333 9.534 0 6.5 0 3.467 0 1 2.333 1 5.197c-.02 4.19 4.892 7.543 5.101 7.683ZM6.5 1.3c2.275 0 4.125 1.75 4.125 3.903.014 2.885-3.017 5.475-4.125 6.325-1.108-.85-4.14-3.441-4.125-6.328 0-2.15 1.85-3.9 4.125-3.9Z"/>
</svg>
