<svg xmlns="http://www.w3.org/2000/svg" width="13" height="14" fill="currentColor" viewBox="0 0 13 14">
  <path d="M1.4 6.067V5.6H.933v.467H1.4Zm3.733 0V5.6h-.466v.467h.466Zm0 3.733h-.466v.467h.466V9.8Zm6.534-6.533h.466v-.194l-.136-.137-.33.33Zm-2.8-2.8.33-.33L9.06 0h-.193v.467ZM1.4 6.533h.933V5.6H1.4v.933Zm.467 3.734V7.933H.933v2.334h.934Zm0-2.334V6.067H.933v1.866h.934Zm.466-.466H1.4V8.4h.933v-.933ZM2.8 7a.467.467 0 0 1-.467.467V8.4a1.4 1.4 0 0 0 1.4-1.4H2.8Zm-.467-.467A.467.467 0 0 1 2.8 7h.933a1.4 1.4 0 0 0-1.4-1.4v.933Zm2.334-.466V9.8H5.6V6.067h-.933Zm.466 4.2h.934v-.934h-.934v.934Zm2.334-1.4V7h-.934v1.867h.934ZM6.067 5.6h-.934v.933h.934V5.6Zm1.4 1.4a1.4 1.4 0 0 0-1.4-1.4v.933A.467.467 0 0 1 6.533 7h.934Zm-1.4 3.267a1.4 1.4 0 0 0 1.4-1.4h-.934a.467.467 0 0 1-.466.466v.934ZM8.4 5.6v4.667h.933V5.6H8.4Zm.467.933H11.2V5.6H8.867v.933Zm0 1.867h1.4v-.933h-1.4V8.4ZM.933 4.667V1.4H0v3.267h.933Zm10.267-1.4v1.4h.933v-1.4H11.2ZM1.4.933h7.467V0H1.4v.933ZM8.536.797l2.8 2.8.661-.66-2.8-2.8-.66.66ZM.933 1.4A.467.467 0 0 1 1.4.933V0A1.4 1.4 0 0 0 0 1.4h.933ZM0 11.2v1.4h.933v-1.4H0ZM1.4 14h9.333v-.933H1.4V14Zm10.733-1.4v-1.4H11.2v1.4h.933Zm-1.4 1.4a1.4 1.4 0 0 0 1.4-1.4H11.2a.467.467 0 0 1-.467.467V14ZM0 12.6A1.4 1.4 0 0 0 1.4 14v-.933a.467.467 0 0 1-.467-.467H0Z"/>
</svg>
