<svg xmlns="http://www.w3.org/2000/svg" width="12" height="12" fill="currentColor" viewBox="0 0 12 12">
  <path d="M3.791 8.21c2.311 2.31 4.452 2.564 5.081 2.587.76.028 1.535-.592 1.87-1.228-.535-.627-1.231-1.114-1.994-1.641-.45.45-1.005 1.285-1.743.985A7.346 7.346 0 0 1 4.64 7.36a7.393 7.393 0 0 1-1.554-2.363c-.3-.74.538-1.295.988-1.745-.527-.775-1.006-1.49-1.632-1.998-.644.337-1.268 1.106-1.24 1.876.024.628.277 2.77 2.588 5.08Zm5.037 3.788c-.866-.032-3.319-.37-5.887-2.938C.372 6.492.034 4.04 0 3.174-.045 1.854.965.573 2.133.072a.884.884 0 0 1 .869.096c.966.705 1.633 1.773 2.205 2.609a.904.904 0 0 1-.106 1.15l-.815.815A6.16 6.16 0 0 0 5.492 6.51a6.14 6.14 0 0 0 1.77 1.206l.813-.815a.902.902 0 0 1 1.153-.103c.854.591 1.856 1.248 2.587 2.184a.883.883 0 0 1 .114.892c-.503 1.174-1.776 2.173-3.1 2.124Z"/>
</svg>
