<svg xmlns="http://www.w3.org/2000/svg" width="40" height="40" fill="currentColor" viewBox="0 0 40 40">
  <g clip-path="url(#a)">
    <path d="M20.001 11.923c-1.673 0-3.03 1.34-3.03 2.992v.256c0 .476-.192.932-.534 1.269a1.83 1.83 0 0 1-1.285.525 1.83 1.83 0 0 1-1.286-.525 1.783 1.783 0 0 1-.533-1.27v-.255a6.54 6.54 0 0 1 1.953-4.654 6.713 6.713 0 0 1 4.715-1.928h.281a6.44 6.44 0 0 1 3.648 1.132 6.316 6.316 0 0 1 2.34 2.985 6.226 6.226 0 0 1 .192 3.769 6.293 6.293 0 0 1-2.023 3.202L22.57 21a2.132 2.132 0 0 0-.752 1.613v1.275c0 .476-.19.932-.532 1.269a1.831 1.831 0 0 1-1.286.526 1.83 1.83 0 0 1-1.286-.526 1.783 1.783 0 0 1-.532-1.27v-1.275c0-1.668.737-3.252 2.02-4.336l1.869-1.58c.427-.36.73-.842.872-1.378a2.68 2.68 0 0 0-.083-1.624 2.719 2.719 0 0 0-1.007-1.285 2.775 2.775 0 0 0-1.572-.487h-.28Zm0 19.744c.643 0 1.26-.253 1.715-.701.454-.45.71-1.058.71-1.693 0-.634-.255-1.243-.71-1.692a2.441 2.441 0 0 0-1.715-.7c-.643 0-1.26.252-1.714.7a2.377 2.377 0 0 0-.71 1.692c0 .635.255 1.244.71 1.693.454.448 1.071.7 1.714.7Z"/>
    <path d="M0 20a20 20 0 1 1 40 0 20 20 0 0 1-40 0ZM20 3.429a16.571 16.571 0 1 0 0 33.142 16.571 16.571 0 0 0 0-33.142Z"/>
  </g>
  <defs>
    <clipPath id="a">
      <path d="M0 0h40v40H0z"/>
    </clipPath>
  </defs>
</svg>
