<svg xmlns="http://www.w3.org/2000/svg" width="14" height="14" fill="currentColor" viewBox="0 0 14 14">
  <path d="M7.853 10.515 4.887 8.912a2.848 2.848 0 0 1-3.1.692A2.82 2.82 0 0 1 .49 8.574a2.782 2.782 0 0 1 0-3.149 2.82 2.82 0 0 1 1.298-1.03 2.848 2.848 0 0 1 3.1.692l2.966-1.603A2.778 2.778 0 0 1 8.08 1.52 2.816 2.816 0 0 1 9.562.193a2.848 2.848 0 0 1 1.996-.024 2.818 2.818 0 0 1 1.513 1.29c.33.597.428 1.294.276 1.959a2.799 2.799 0 0 1-1.1 1.65 2.843 2.843 0 0 1-3.717-.355L5.564 6.316c.114.449.114.918 0 1.367L8.53 9.286a2.843 2.843 0 0 1 3.717-.354c.557.4.948.987 1.1 1.652a2.778 2.778 0 0 1-.277 1.959 2.818 2.818 0 0 1-1.514 1.289 2.848 2.848 0 0 1-1.996-.025 2.816 2.816 0 0 1-1.481-1.327 2.778 2.778 0 0 1-.226-1.965M2.825 8.399c.374 0 .734-.147.998-.41a1.394 1.394 0 0 0 0-1.98 1.419 1.419 0 0 0-1.997 0 1.394 1.394 0 0 0 0 1.98c.265.263.624.41.999.41Zm7.767-4.2c.375 0 .734-.147.999-.41a1.394 1.394 0 0 0 0-1.979 1.418 1.418 0 0 0-1.997 0 1.394 1.394 0 0 0 0 1.98c.265.262.624.41.998.41Zm0 8.4c.375 0 .734-.148.999-.41a1.394 1.394 0 0 0 0-1.98 1.419 1.419 0 0 0-1.997 0 1.394 1.394 0 0 0 0 1.98c.265.262.624.41.998.41Z"/>
</svg>
